<?xml version="1.0" encoding="UTF-8"?>
<svg version="1.1" xmlns="http://www.w3.org/2000/svg" width="1920" height="100">
<path d="M0 0 C2.96402267 0.00460515 5.92763232 -0.00221221 8.89160156 -0.02050781 C30.29577343 -0.15118686 51.32438488 0.92495128 72.59765625 3.31567383 C73.51091675 3.41800323 74.42417725 3.52033264 75.3651123 3.62576294 C80.0199356 4.16266164 84.65259379 4.79621642 89.28515625 5.50317383 C89.96312256 5.60549316 90.64108887 5.7078125 91.33959961 5.81323242 C123.23117394 10.66606154 154.32356836 18.67425466 185.47920227 26.91064453 C216.00794121 34.97837464 246.6179312 42.18809916 277.59765625 48.31567383 C278.34170715 48.46349304 279.08575806 48.61131226 279.85235596 48.76361084 C359.67649921 64.58626427 441.76357882 70.69219397 627.59765625 46.31567383 C627.59765625 64.13567383 627.59765625 81.95567383 627.59765625 100.31567383 C257.33765625 100.31567383 -112.92234375 100.31567383 -494.40234375 100.31567383 C-494.40234375 99.98567383 -494.40234375 99.65567383 -494.40234375 99.31567383 C-492.7766748 99.25621582 -492.7766748 99.25621582 -491.11816406 99.19555664 C-410.3619091 96.15832706 -335.03987941 77.81334625 -258.421875 53.18676758 C-123.65196354 9.88245638 -123.65196354 9.88245638 -54.55004883 2.54452515 C-53.05085154 2.38477636 -51.55218415 2.22000988 -50.05395508 2.05142212 C-33.38143245 0.20889358 -16.75229447 -0.02816317 0 0 Z " fill="#FFFFFF" transform="translate(1292.40234375,-0.315673828125)"/>
<path d="M0 0 C0.9477832 0.1018158 1.89556641 0.20363159 2.87207031 0.30853271 C70.50450018 7.66413832 136.53839584 21.75985005 201.41438293 42.21499634 C268.95859026 63.50456905 336.07436774 76.82474685 407 79 C407 79.33 407 79.66 407 80 C145.64 80 -115.72 80 -385 80 C-385 75.71 -385 71.42 -385 67 C-313.89066467 28.8573666 -235.97809956 8.58640572 -156 0 C-155.2431189 -0.0835675 -154.48623779 -0.16713501 -153.7064209 -0.25323486 C-103.34857276 -5.7861788 -50.34660159 -5.41764136 0 0 Z " fill="#FFFFFF" transform="translate(385,20)"/>
</svg>
